<svg width="20" height="20" viewBox="0 0 20 20" fill="none" xmlns="http://www.w3.org/2000/svg">
<path d="M9.99991 0C7.62541 9.84641e-05 5.32842 0.845103 3.51995 2.38382C1.71147 3.92253 0.509522 6.05455 0.129159 8.39838C-0.251204 10.7422 0.214842 13.1449 1.44391 15.1766C2.67298 17.2082 4.58486 18.7363 6.83746 19.4873C7.33746 19.5748 7.52495 19.2748 7.52495 19.0123C7.52495 18.7748 7.51245 17.9873 7.51245 17.1498C4.99997 17.6123 4.34997 16.5373 4.14998 15.9748C3.92806 15.4278 3.57626 14.943 3.12499 14.5623C2.77499 14.3748 2.275 13.9123 3.11248 13.8999C3.43226 13.9346 3.73897 14.0458 4.00661 14.2242C4.27425 14.4027 4.49494 14.643 4.64997 14.9248C4.78674 15.1705 4.97065 15.3868 5.19115 15.5613C5.41166 15.7358 5.66443 15.8651 5.93499 15.9417C6.20554 16.0183 6.48856 16.0408 6.76782 16.0079C7.04709 15.975 7.31711 15.8873 7.56241 15.7498C7.60571 15.2414 7.83227 14.7661 8.19993 14.4124C5.97495 14.1624 3.64998 13.2998 3.64998 9.47491C3.63593 8.48107 4.00266 7.51952 4.67497 6.78745C4.36926 5.92368 4.40503 4.97575 4.77497 4.13748C4.77497 4.13748 5.61243 3.87497 7.52493 5.16247C9.1612 4.71245 10.8886 4.71245 12.5249 5.16247C14.4373 3.86248 15.2748 4.13748 15.2748 4.13748C15.6448 4.97574 15.6806 5.92368 15.3748 6.78745C16.0492 7.51826 16.4162 8.48066 16.3998 9.47491C16.3998 13.3123 14.0623 14.1624 11.8374 14.4124C12.076 14.6542 12.2598 14.9446 12.3763 15.2639C12.4928 15.5831 12.5392 15.9236 12.5124 16.2623C12.5124 17.5998 12.4999 18.6748 12.4999 19.0123C12.4999 19.2748 12.6874 19.5873 13.1874 19.4873C15.436 18.7302 17.3424 17.1986 18.5662 15.1659C19.79 13.1332 20.2517 10.7317 19.8687 8.39013C19.4857 6.04857 18.283 3.91932 16.4753 2.38248C14.6676 0.84564 12.3726 0.00123489 9.99991 0Z" fill="#EAECF0"/>
</svg>
