<svg width="115" height="25" viewBox="0 0 115 25" fill="none" xmlns="http://www.w3.org/2000/svg">
<g clip-path="url(#clip0_113_184)">
<path d="M24.9756 7.35007C24.917 6.02172 24.7022 5.1085 24.3945 4.31717C24.077 3.4772 23.5886 2.72518 22.9488 2.10002C22.3236 1.46513 21.5667 0.971793 20.7364 0.659308C19.9405 0.351593 19.0321 0.136784 17.7037 0.0782166C16.3654 0.0146894 15.9406 0 12.5464 0C9.15216 0 8.72731 0.0146894 7.39401 0.0732565C6.06566 0.131824 5.15244 0.346824 4.36131 0.654348C3.52115 0.971793 2.76912 1.46017 2.14396 2.10002C1.50907 2.72518 1.01593 3.48216 0.703253 4.3124C0.395538 5.1085 0.180729 6.01676 0.122162 7.34511C0.0586347 8.68338 0.0439453 9.10822 0.0439453 12.5024C0.0439453 15.8967 0.0586347 16.3215 0.117202 17.6548C0.175769 18.9832 0.390769 19.8964 0.698484 20.6877C1.01593 21.5277 1.50907 22.2797 2.14396 22.9049C2.76912 23.5398 3.52611 24.0331 4.35635 24.3456C5.15244 24.6533 6.0607 24.8681 7.38924 24.9267C8.72235 24.9854 9.1474 24.9999 12.5416 24.9999C15.9358 24.9999 16.3607 24.9854 17.694 24.9267C19.0223 24.8681 19.9356 24.6533 20.7267 24.3456C22.4068 23.696 23.7352 22.3677 24.3847 20.6877C24.6923 19.8916 24.9073 18.9832 24.9658 17.6548C25.0244 16.3215 25.0391 15.8967 25.0391 12.5024C25.0391 9.10822 25.0341 8.68338 24.9756 7.35007ZM22.7243 17.5571C22.6705 18.7781 22.4654 19.4374 22.2944 19.8769C21.8744 20.966 21.01 21.8304 19.9209 22.2505C19.4813 22.4214 18.8172 22.6265 17.6011 22.6801C16.2825 22.7389 15.887 22.7534 12.5513 22.7534C9.21569 22.7534 8.81526 22.7389 7.50141 22.6801C6.28047 22.6265 5.62117 22.4214 5.18163 22.2505C4.63964 22.0502 4.14631 21.7328 3.74588 21.3176C3.33076 20.9123 3.01331 20.4239 2.813 19.8819C2.64207 19.4424 2.43699 18.7781 2.38338 17.5621C2.32462 16.2435 2.31013 15.8478 2.31013 12.5122C2.31013 9.17652 2.32462 8.77609 2.38338 7.46243C2.43699 6.24149 2.64207 5.58218 2.813 5.14264C3.01331 4.60047 3.33076 4.10732 3.75084 3.7067C4.15604 3.29158 4.64441 2.97414 5.18659 2.77402C5.62613 2.60309 6.29039 2.39801 7.50637 2.34421C8.82499 2.28564 9.22065 2.27095 12.5561 2.27095C15.8967 2.27095 16.2922 2.28564 17.606 2.34421C18.827 2.39801 19.4863 2.60309 19.9258 2.77402C20.4678 2.97414 20.9611 3.29158 21.3616 3.7067C21.7767 4.11209 22.0941 4.60047 22.2944 5.14264C22.4654 5.58218 22.6705 6.24626 22.7243 7.46243C22.7828 8.78105 22.7975 9.17652 22.7975 12.5122C22.7975 15.8478 22.7828 16.2385 22.7243 17.5571Z" fill="white"/>
<path d="M12.5462 6.08008C9.00068 6.08008 6.12402 8.95654 6.12402 12.5022C6.12402 16.0479 9.00068 18.9244 12.5462 18.9244C16.0919 18.9244 18.9683 16.0479 18.9683 12.5022C18.9683 8.95654 16.0919 6.08008 12.5462 6.08008ZM12.5462 16.6681C10.246 16.6681 8.38029 14.8026 8.38029 12.5022C8.38029 10.2019 10.246 8.33634 12.5462 8.33634C14.8465 8.33634 16.7121 10.2019 16.7121 12.5022C16.7121 14.8026 14.8465 16.6681 12.5462 16.6681Z" fill="white"/>
<path d="M20.7219 5.82545C20.7219 6.6534 20.0506 7.32473 19.2224 7.32473C18.3945 7.32473 17.7231 6.6534 17.7231 5.82545C17.7231 4.99731 18.3945 4.32617 19.2224 4.32617C20.0506 4.32617 20.7219 4.99731 20.7219 5.82545Z" fill="white"/>
</g>
<g clip-path="url(#clip1_113_184)">
<path fill-rule="evenodd" clip-rule="evenodd" d="M65.7902 4.17558C63.5975 1.98032 60.6814 0.770819 57.5747 0.769531C51.1732 0.769531 45.9633 5.97931 45.9607 12.3826C45.9598 14.4295 46.4946 16.4276 47.5109 18.1889L45.8633 24.207L52.0201 22.592C53.7165 23.5174 55.6264 24.005 57.57 24.0056H57.5749C63.9757 24.0056 69.1862 18.7954 69.1886 12.3919C69.1899 9.28851 67.983 6.3707 65.7902 4.17558ZM57.5747 22.0442H57.5707C55.8387 22.0435 54.1399 21.578 52.6576 20.6987L52.3053 20.4894L48.6518 21.4479L49.627 17.8857L49.3974 17.5205C48.431 15.9836 47.9208 14.2072 47.9216 12.3833C47.9236 7.06106 52.2541 2.73105 57.5786 2.73105C60.157 2.73191 62.5807 3.73727 64.4031 5.56189C66.2256 7.3865 67.2287 9.81179 67.2278 12.3911C67.2255 17.7138 62.8954 22.0442 57.5747 22.0442ZM62.8696 14.8146C62.5795 14.6692 61.1527 13.9674 60.8867 13.8704C60.6209 13.7736 60.4272 13.7254 60.2339 14.0158C60.0404 14.3062 59.4843 14.9599 59.315 15.1535C59.1456 15.3472 58.9765 15.3715 58.6862 15.2261C58.396 15.0809 57.461 14.7744 56.3525 13.7858C55.4899 13.0163 54.9075 12.066 54.7382 11.7756C54.5691 11.4849 54.7367 11.343 54.8655 11.1834C55.1796 10.7933 55.4942 10.3843 55.5909 10.1907C55.6877 9.99704 55.6393 9.82753 55.5666 9.68233C55.4942 9.53713 54.9138 8.10877 54.6721 7.52755C54.4363 6.96193 54.1973 7.03832 54.0191 7.02945C53.85 7.02101 53.6564 7.01929 53.4629 7.01929C53.2695 7.01929 52.955 7.09182 52.689 7.3825C52.423 7.67304 51.6734 8.37499 51.6734 9.80335C51.6734 11.2317 52.7133 12.6116 52.8583 12.8053C53.0034 12.999 54.9047 15.9301 57.8156 17.1869C58.508 17.4862 59.0484 17.6646 59.47 17.7983C60.1652 18.0192 60.7977 17.988 61.2978 17.9133C61.8554 17.83 63.0145 17.2113 63.2566 16.5335C63.4983 15.8556 63.4983 15.2746 63.4257 15.1535C63.3533 15.0324 63.1597 14.9599 62.8696 14.8146Z" fill="white"/>
</g>
<path d="M93.6113 1.26953C91.8927 1.26953 90.769 2.39806 90.769 3.88136C90.769 5.3319 91.8592 6.49261 93.5454 6.49261H93.578C95.3302 6.49261 96.4207 5.3319 96.4207 3.88136C96.3879 2.39806 95.3302 1.26953 93.6113 1.26953Z" fill="white"/>
<path d="M91.0659 8.55664H96.0902V23.6723H91.0659V8.55664Z" fill="white"/>
<path d="M108.422 8.20117C105.712 8.20117 103.895 10.7481 103.895 10.7481V8.55594H98.8701V23.6716H103.894V15.2304C103.894 14.7785 103.927 14.3273 104.06 14.0042C104.423 13.1018 105.249 12.167 106.638 12.167C108.456 12.167 109.183 13.5532 109.183 15.5852V23.6716H114.206V15.0046C114.206 10.3617 111.728 8.20117 108.422 8.20117Z" fill="white"/>
<defs>
<clipPath id="clip0_113_184">
<rect width="25" height="25" fill="white"/>
</clipPath>
<clipPath id="clip1_113_184">
<rect width="25" height="25" fill="white" transform="translate(45)"/>
</clipPath>
</defs>
</svg>
