<svg width="25" height="23" viewBox="0 0 25 23" fill="none" xmlns="http://www.w3.org/2000/svg">
<path d="M24.6338 10.3661L14.6337 0.366143C14.459 0.191326 14.2362 0.0722692 13.9938 0.0240287C13.7513 -0.0242117 13.5 0.000530798 13.2716 0.0951275C13.0432 0.189724 12.848 0.349926 12.7107 0.555474C12.5733 0.761021 12.5 1.00268 12.5 1.24989V5.68104C9.08537 5.9971 5.91157 7.57597 3.59966 10.1087C1.28775 12.6414 0.00413563 15.9457 3.66754e-09 19.3749V21.2499C-1.98766e-05 21.5095 0.0807829 21.7626 0.231191 21.9742C0.381598 22.1858 0.594149 22.3453 0.839334 22.4306C1.08452 22.5159 1.35018 22.5227 1.59942 22.4502C1.84867 22.3776 2.06914 22.2292 2.23022 22.0257C3.45478 20.5693 4.95729 19.3716 6.64996 18.5026C8.34263 17.6335 10.1915 17.1104 12.0886 16.964C12.1509 16.9561 12.3071 16.9439 12.5 16.9317V21.2499C12.5 21.4971 12.5733 21.7388 12.7107 21.9443C12.848 22.1499 13.0432 22.3101 13.2716 22.4047C13.5 22.4993 13.7513 22.524 13.9938 22.4758C14.2362 22.4275 14.459 22.3085 14.6337 22.1336L24.6338 12.1336C24.7498 12.0176 24.8419 11.8798 24.9048 11.7282C24.9676 11.5766 24.9999 11.414 24.9999 11.2499C24.9999 11.0858 24.9676 10.9232 24.9048 10.7716C24.8419 10.62 24.7498 10.4822 24.6338 10.3661ZM15 18.2323V15.6249C15 15.4607 14.9677 15.2982 14.9049 15.1465C14.8421 14.9948 14.7501 14.857 14.634 14.7409C14.5179 14.6248 14.3801 14.5328 14.2284 14.47C14.0767 14.4072 13.9142 14.3749 13.75 14.3749C13.4314 14.3749 12.1301 14.4365 11.7981 14.4811C8.42884 14.7915 5.2217 16.0715 2.5647 18.1664C2.86611 15.4093 4.17397 12.8603 6.23783 11.0075C8.30169 9.15467 10.9765 8.12829 13.75 8.12489C13.9142 8.12494 14.0767 8.09263 14.2284 8.02983C14.3801 7.96703 14.5179 7.87495 14.634 7.75887C14.7501 7.64279 14.8421 7.50497 14.9049 7.3533C14.9677 7.20162 15 7.03906 15 6.87489V4.26747L21.9824 11.2499L15 18.2323Z" fill="#EAECF0"/>
</svg>
